<?xml version="1.0" encoding="utf-8"?><svg width="197" height="196" viewBox="0 0 197 196" xmlns="http://www.w3.org/2000/svg" xmlns:xlink="http://www.w3.org/1999/xlink"><svg preserveAspectRatio="xMidYMid" width="10" height="10" viewBox="-1 -1 10 10" id="btn-add" x="124" y="144.81"><path fill="#bcc2c5" d="M8 5H5v3H3V5H0V3h3V0h2v3h3v2z" class="aacls-1"/></svg><svg preserveAspectRatio="xMidYMid" width="9.06" height="9.06" viewBox="-1 -1 9.06 9.06" id="btn-delete" x="134" y="144.81"><path fill="#ff5c61" d="M7.067 1.41L4.945 3.531l2.122 2.121-1.415 1.415-2.121-2.122L1.41 7.067-.005 5.652l2.122-2.121L-.005 1.41 1.41-.004l2.121 2.121L5.652-.004 7.067 1.41z" class="abcls-1"/></svg><svg preserveAspectRatio="xMidYMid" width="12" height="12" viewBox="-1 -1 12 12" id="btn_plus" x="182.22" y="151"><path fill="#f6f8f9" d="M10 6H6v4H4V6H0V4h4V0h2v4h4v2z"/></svg><svg preserveAspectRatio="xMidYMid" width="16" height="16" viewBox="-1 -1 16 16" id="checkbox-checked" x="50" y="178.81"><path fill="#fff" stroke="#ccc" d="M.5.5h13v13H.5z"/><path fill="#ccc" d="M2.5 2.5h9v9h-9z"/></svg><svg preserveAspectRatio="xMidYMid" width="16" height="16" viewBox="-1 -1 16 16" id="checkbox-default" x="98" y="178.81"><path fill="#fff" stroke="#ccc" stroke-linejoin="round" d="M.5.5h13v13H.5z"/></svg><svg preserveAspectRatio="xMidYMid" width="18" height="19" viewBox="-1 -1 18 19" id="form-datepicker" y="159.81"><path fill="#bac0c3" d="M15 17H0V1h3V0h1v1h7V0h1v1h4v16h-1zm0-15H1v2h14V2zm0 3H1v11h14V5zM6 9v1H4V8h2v1zm0 3v1H4v-2h2v1zm3-3v1H7V8h2v1zm0 3v1H7v-2h2v1zm3-3v1h-2V8h2v1zm0 3v1h-2v-2h2v1z" class="afcls-1"/></svg><svg preserveAspectRatio="xMidYMid" width="13" height="13" viewBox="-1 -1 13 13" id="form-delete-btn" x="182.22" y="126"><defs><style>.agcls-1{fill:#999;fill-rule:evenodd}</style></defs><path d="M11 11H9v-1H8V9H7V8H6V7H5V6H4V5H3V4H2V3H1V2H0V0h2v1h1v1h1v1h1v1h1v1h1v1h1v1h1v1h1v1h1v2z" class="agcls-1"/><path d="M10 2v1H9v1H8v1H7v1H6v1H5v1H4v1H3v1H2v1H0V9h1V8h1V7h1V6h1V5h1V4h1V3h1V2h1V1h1V0h2v2h-1z" class="agcls-1"/></svg><svg preserveAspectRatio="xMidYMid" width="7" height="11" viewBox="-1 -1 7 11" id="form-left-arrow" x="150.22" y="92.91"><path fill="#666" d="M2 6H1V5h1v1zm1 1H2V6h1v1zm1 1H3V7h1v1zm1 1H4V8h1v1zM0 5V4h1v1H0zm2-2v1H1V3h1zm1-1v1H2V2h1zm1-1v1H3V1h1zm1-1v1H4V0h1z" class="ahcls-1"/></svg><svg preserveAspectRatio="xMidYMid" width="7" height="11" viewBox="-1 -1 7 11" id="form-right-arrow" x="87" y="144.81"><path fill="#666" d="M4 5V4h1v1H4zM3 6V5h1v1H3zM2 7V6h1v1H2zM1 8V7h1v1H1zM0 9V8h1v1H0zm3-6h1v1H3V3zM2 2h1v1H2V2zM1 1h1v1H1V1zM0 0h1v1H0V0z" class="aicls-1"/></svg><svg preserveAspectRatio="xMidYMid" width="11.88" height="11.88" viewBox="-1 -1 11.88 11.88" id="form_social_delete" x="116.03" y="96"><path fill="#fff" d="M9.888 8.474L8.474 9.888 4.938 6.352 1.402 9.888-.012 8.474l3.536-3.536-3.536-3.536L1.402-.012l3.536 3.536L8.474-.012l1.414 1.414-3.536 3.536 3.536 3.536z" class="ajcls-1"/></svg><svg preserveAspectRatio="xMidYMid" width="14" height="14" viewBox="-1 -1 14 14" id="form_social_plus" x="182.22" y="98"><path fill="#fff" d="M12 7H7v5H5V7H0V5h5V0h2v5h5v2z" class="akcls-1"/></svg><svg preserveAspectRatio="xMidYMid" width="32" height="30.97" viewBox="-1 -1 32 30.97" id="header_home" x="129.06" y="30.97"><path fill="#bac0c3" d="M29.167 15.336L15.004 1.639.841 15.336l-.848-.82 4.008-3.523V3.998h5.001l.008 1.798L15.004 0l15.011 14.516-.848.82zM8.002 4.997H5.001v4.997l3.183-3.45-.182-1.547zm18.005 9.994v13.991h-8.002v-7.995h-5.002v7.995H4.001V14.991L15.004 4.637l11.003 10.354zM5.001 27.983h7.002v-6.996l1-.999h6.002v7.995h6.002V14.991L15.004 6.276 5.001 14.99v12.993z" class="alcls-1"/></svg><svg preserveAspectRatio="xMidYMid" width="32" height="30.97" viewBox="-1 -1 32 30.97" id="header_home_act" x="129.06"><path fill="#14aeed" d="M29.167 15.336L15.004 1.639.841 15.336l-.848-.82 4.008-3.523V3.998h5.001l.008 1.798L15.004 0l15.011 14.516-.848.82zM8.002 4.997H5.001v4.997l3.183-3.45-.182-1.547zm18.005 9.994v13.991h-8.002v-7.995h-5.002v7.995H4.001V14.991L15.004 4.637l11.003 10.354zM5.001 27.983h7.002v-6.996l1-.999h6.002v7.995h6.002V14.991L15.004 6.276 5.001 14.99v12.993z" class="amcls-1"/></svg><svg preserveAspectRatio="xMidYMid" width="32" height="30.97" viewBox="-1 -1 32 30.97" id="header_home_hov" x="129.06" y="61.94"><path fill="#666" d="M29.167 15.336L15.004 1.639.841 15.336l-.848-.82 4.008-3.523V3.998h5.001l.008 1.798L15.004 0l15.011 14.516-.848.82zM8.002 4.997H5.001v4.997l3.183-3.45-.182-1.547zm18.005 9.994v13.991h-8.002v-7.995h-5.002v7.995H4.001V14.991L15.004 4.637l11.003 10.354zM5.001 27.983h7.002v-6.996l1-.999h6.002v7.995h6.002V14.991L15.004 6.276 5.001 14.99v12.993z"/></svg><svg preserveAspectRatio="xMidYMid" width="31" height="30.97" viewBox="-1 -1 31 30.97" id="header_news" x="31" y="113.84"><path fill="#bac0c3" d="M25.512 28.982H3.742c-1.599 0-3.756-.957-3.756-3.273V15.99h7.001L6.947 0h22.046v25.504c0 1.769-1.722 3.478-3.481 3.478zM.986 16.989v8.995c0 1.734 2.033 1.839 2.756 1.839h.59c1.6 0 2.615-1.838 2.615-2.614l.04-8.22H.986zM27.993.999H7.988V15.99l.12.569-.12.43v7.995c0 .732-.219 2.185-1.001 2.999h19.005a1.972 1.972 0 0 0 2.001-1.999V.999zM10.988 22.986h14.004v.999H10.988v-.999zm0-3.998h14.004v1H10.988v-1zm0-10.993h14.004v7.995H10.988V7.995zm1.001 6.996h12.003V8.994H11.989v5.997zM10.988 3.998h14.004v.999H10.988v-.999z"/></svg><svg preserveAspectRatio="xMidYMid" width="31" height="30.97" viewBox="-1 -1 31 30.97" id="header_news_act" x="62" y="113.84"><path fill="#14aeed" d="M25.512 28.982H3.742c-1.599 0-3.756-.957-3.756-3.273V15.99h7.001L6.947 0h22.046v25.504c0 1.769-1.722 3.478-3.481 3.478zM.986 16.989v8.995c0 1.734 2.033 1.839 2.756 1.839h.59c1.6 0 2.615-1.838 2.615-2.614l.04-8.22H.986zM27.993.999H7.988V15.99l.12.569-.12.43v7.995c0 .732-.219 2.185-1.001 2.999h19.005a1.972 1.972 0 0 0 2.001-1.999V.999zM10.988 22.986h14.004v.999H10.988v-.999zm0-3.998h14.004v1H10.988v-1zm0-10.993h14.004v7.995H10.988V7.995zm1.001 6.996h12.003V8.994H11.989v5.997zM10.988 3.998h14.004v.999H10.988v-.999z"/></svg><svg preserveAspectRatio="xMidYMid" width="31" height="30.97" viewBox="-1 -1 31 30.97" id="header_news_hov" y="113.84"><path fill="#666" d="M25.512 28.982H3.742c-1.599 0-3.756-.957-3.756-3.273V15.99h7.001L6.947 0h22.046v25.504c0 1.769-1.722 3.478-3.481 3.478zM.986 16.989v8.995c0 1.734 2.033 1.839 2.756 1.839h.59c1.6 0 2.615-1.838 2.615-2.614l.04-8.22H.986zM27.993.999H7.988V15.99l.12.569-.12.43v7.995c0 .732-.219 2.185-1.001 2.999h19.005a1.972 1.972 0 0 0 2.001-1.999V.999zM10.988 22.986h14.004v.999H10.988v-.999zm0-3.998h14.004v1H10.988v-1zm0-10.993h14.004v7.995H10.988V7.995zm1.001 6.996h12.003V8.994H11.989v5.997zM10.988 3.998h14.004v.999H10.988v-.999z"/></svg><svg preserveAspectRatio="xMidYMid" width="32.03" height="32" viewBox="-1 -1 32.03 32" id="header_search" x="97.03" y="64"><path fill="#bac0c3" d="M30.024 29.103l-.751.902-7.152-6.151c-2.348 2.072-5.402 3.337-8.748 3.337-7.372 0-13.369-6.096-13.369-13.588C.004 6.111 6.001.015 13.373.015s13.369 6.096 13.369 13.588c0 3.665-1.441 6.989-3.77 9.436l7.052 6.064zM13.373 1.197c-6.731 0-12.207 5.565-12.207 12.406s5.476 12.406 12.207 12.406c6.731 0 12.206-5.565 12.206-12.406S20.104 1.197 13.373 1.197z"/><path fill="none" stroke="#bac0c3" d="M21.578 10.525s-2.223-6.599-8.974-5.943"/></svg><svg preserveAspectRatio="xMidYMid" width="32.03" height="32" viewBox="-1 -1 32.03 32" id="header_search_act" x="97.03" y="32"><path fill="#14aeed" d="M30.024 29.103l-.751.902-7.152-6.151c-2.348 2.072-5.402 3.337-8.748 3.337-7.372 0-13.369-6.096-13.369-13.588C.004 6.111 6.001.015 13.373.015s13.369 6.096 13.369 13.588c0 3.665-1.441 6.989-3.77 9.436l7.052 6.064zM13.373 1.197c-6.731 0-12.207 5.565-12.207 12.406s5.476 12.406 12.207 12.406c6.731 0 12.206-5.565 12.206-12.406S20.104 1.197 13.373 1.197z"/><path fill="none" stroke="#14aeed" d="M21.578 10.525s-2.223-6.599-8.974-5.943"/></svg><svg preserveAspectRatio="xMidYMid" width="32.03" height="32" viewBox="-1 -1 32.03 32" id="header_search_hov" x="97.03"><path fill="#666" d="M30.024 29.103l-.751.902-7.152-6.151c-2.348 2.072-5.402 3.337-8.748 3.337-7.372 0-13.369-6.096-13.369-13.588C.004 6.111 6.001.015 13.373.015s13.369 6.096 13.369 13.588c0 3.665-1.441 6.989-3.77 9.436l7.052 6.064zM13.373 1.197c-6.731 0-12.207 5.565-12.207 12.406s5.476 12.406 12.207 12.406c6.731 0 12.206-5.565 12.206-12.406S20.104 1.197 13.373 1.197z"/><path fill="none" stroke="#666" d="M21.578 10.525s-2.223-6.599-8.974-5.943"/></svg><svg preserveAspectRatio="xMidYMid" width="22" height="22" viewBox="-1 -1 22 22" id="index_search" x="115" y="113.84"><path fill="#c5c5c5" d="M20.006 19.393l-.5.602-4.767-4.103c-1.565 1.382-3.601 2.226-5.831 2.226-4.913 0-8.91-4.066-8.91-9.064S3.995-.011 8.908-.011s8.911 4.067 8.911 9.065a9.11 9.11 0 0 1-2.513 6.294l4.7 4.045zM8.908.777C4.422.777.772 4.49.772 9.054c0 4.563 3.65 8.276 8.136 8.276 4.486 0 8.136-3.713 8.136-8.276 0-4.564-3.65-8.277-8.136-8.277z" class="aucls-1"/></svg><svg preserveAspectRatio="xMidYMid" width="22" height="22" viewBox="-1 -1 22 22" id="index_search_act" x="137" y="113.84"><path fill="#14aeed" d="M20.006 19.393l-.5.602-4.767-4.103c-1.565 1.382-3.601 2.226-5.831 2.226-4.913 0-8.91-4.066-8.91-9.064S3.995-.011 8.908-.011s8.911 4.067 8.911 9.065a9.11 9.11 0 0 1-2.513 6.294l4.7 4.045zM8.908.777C4.422.777.772 4.49.772 9.054c0 4.563 3.65 8.276 8.136 8.276 4.486 0 8.136-3.713 8.136-8.276 0-4.564-3.65-8.277-8.136-8.277z" class="avcls-1"/></svg><svg preserveAspectRatio="xMidYMid" width="22" height="22" viewBox="-1 -1 22 22" id="index_search_hov" x="93" y="113.84"><path fill="#009ee1" d="M20.006 19.393l-.5.602-4.767-4.103c-1.565 1.382-3.601 2.226-5.831 2.226-4.913 0-8.91-4.066-8.91-9.064S3.995-.011 8.908-.011s8.911 4.067 8.911 9.065a9.11 9.11 0 0 1-2.513 6.294l4.7 4.045zM8.908.777C4.422.777.772 4.49.772 9.054c0 4.563 3.65 8.276 8.136 8.276 4.486 0 8.136-3.713 8.136-8.276 0-4.564-3.65-8.277-8.136-8.277z"/></svg><svg preserveAspectRatio="xMidYMid" width="12" height="12" viewBox="-1 -1 12 12" id="nav-add" x="182.22" y="139"><g fill="#bac0c3"><path d="M4 0h2v10H4z"/><path d="M10 4v2H0V4h10z"/></g></svg><svg width="12" height="12" viewBox="-1 -1 12 12" id="nav-add-blue" x="182.22" y="163"><title>Group</title><g fill="#2CB1E8" fill-rule="evenodd"><path d="M4 0h2v10H4z"/><path d="M10 4v2H0V4z"/></g></svg><svg preserveAspectRatio="xMidYMid" width="19" height="15" viewBox="-1 -1 19 15" id="nav-cars" y="144.81"><path fill="#bac0c3" d="M17 8l-1 3h-1l-.259.448c0 .855-.705 1.548-1.574 1.548-.87 0-1.574-.693-1.574-1.548L11 11H3l-.111.448c0 .512.424.929.944.929a.938.938 0 0 0 .945-.929L5 11l.407.448c0 .855-.704 1.548-1.574 1.548-.869 0-1.574-.693-1.574-1.548L2 11H1L0 8c0-1.939 1.028-3.924 2-4H0V3l2.204.71 1.571-2.453C4.022.45 4.538.004 5.407.004h6.186c.869 0 1.472.418 1.706 1.23L15 4c.957.091 1.936 2.071 2 4zm-4.778 3.448c0 .512.424.929.945.929a.938.938 0 0 0 .944-.929L14 11h-2l.222.448zm.466-10.063C12.532.865 12.591 1 12 1H5c-.549 0-.439-.146-.616.416L3 4h11l-1.312-2.615zm2.108 3.587L2 5c-.373 0-1 1.129-1 3L.944 9.9h.315L4 10h12l.056-.1L16 8c.064-1.132-.509-3.028-1.204-3.028zm-1.259 3.69a1.249 1.249 0 0 1-1.259-1.238 1.25 1.25 0 0 1 1.259-1.238c.696 0 1.259.555 1.259 1.238 0 .684-.563 1.238-1.259 1.238zm0-1.857a.626.626 0 0 0-.63.619c0 .342.283.619.63.619.347 0 .63-.277.63-.619a.626.626 0 0 0-.63-.619zM3.463 8.662a1.249 1.249 0 0 1-1.259-1.238 1.25 1.25 0 0 1 1.259-1.238c.696 0 1.259.555 1.259 1.238 0 .684-.563 1.238-1.259 1.238zm0-1.857a.626.626 0 0 0-.63.619c0 .342.283.619.63.619.347 0 .63-.277.63-.619a.626.626 0 0 0-.63-.619zM17 3v1h-2l2-1z" class="azcls-1"/></svg><svg preserveAspectRatio="xMidYMid" width="19" height="15" viewBox="-1 -1 19 15" id="nav-cars-cur" x="97.03" y="96"><path fill="#4bbfeb" d="M17 8l-1 3h-1l-.259.448c0 .855-.705 1.548-1.574 1.548-.87 0-1.574-.693-1.574-1.548L11 11H3l-.111.448c0 .512.424.929.944.929a.938.938 0 0 0 .945-.929L5 11l.407.448c0 .855-.704 1.548-1.574 1.548-.869 0-1.574-.693-1.574-1.548L2 11H1L0 8c0-1.939 1.028-3.924 2-4H0V3l2.204.71 1.571-2.453C4.022.45 4.538.004 5.407.004h6.186c.869 0 1.472.418 1.706 1.23L15 4c.957.091 1.936 2.071 2 4zm-4.778 3.448c0 .512.424.929.945.929a.938.938 0 0 0 .944-.929L14 11h-2l.222.448zm.466-10.063C12.532.865 12.591 1 12 1H5c-.549 0-.439-.146-.616.416L3 4h11l-1.312-2.615zm2.108 3.587L2 5c-.373 0-1 1.129-1 3L.944 9.9h.315L4 10h12l.056-.1L16 8c.064-1.132-.509-3.028-1.204-3.028zm-1.259 3.69a1.249 1.249 0 0 1-1.259-1.238 1.25 1.25 0 0 1 1.259-1.238c.696 0 1.259.555 1.259 1.238 0 .684-.563 1.238-1.259 1.238zm0-1.857a.626.626 0 0 0-.63.619c0 .342.283.619.63.619.347 0 .63-.277.63-.619a.626.626 0 0 0-.63-.619zM3.463 8.662a1.249 1.249 0 0 1-1.259-1.238 1.25 1.25 0 0 1 1.259-1.238c.696 0 1.259.555 1.259 1.238 0 .684-.563 1.238-1.259 1.238zm0-1.857a.626.626 0 0 0-.63.619c0 .342.283.619.63.619.347 0 .63-.277.63-.619a.626.626 0 0 0-.63-.619zM17 3v1h-2l2-1z" class="bacls-1"/></svg><svg preserveAspectRatio="xMidYMid" width="14" height="16" viewBox="-1 -1 14 16" id="nav-contacts" x="182.22" y="66"><path fill="#bec3c6" d="M11 14H1v-3H0v-1h1V7H0V6h1V3H0V2h1V0h11v14h-1zm0-13H2v12h9V1zM6.5 6C7.881 6 9 7.469 9 7.5 9 9.106 8.876 8.934 6.5 9 4.22 9.032 4 9.202 4 7.5 4 7.372 5.119 6 6.5 6zM5 4.5a1.5 1.5 0 1 1 3.001.001A1.5 1.5 0 0 1 5 4.5z" class="bbcls-1"/></svg><svg preserveAspectRatio="xMidYMid" width="14" height="16" viewBox="-1 -1 14 16" id="nav-contacts-cur" x="182.22" y="82"><path fill="#4bbfeb" d="M11 14H1v-3H0v-1h1V7H0V6h1V3H0V2h1V0h11v14h-1zm0-13H2v12h9V1zM6.5 6C7.881 6 9 7.469 9 7.5 9 9.106 8.876 8.934 6.5 9 4.22 9.032 4 9.202 4 7.5 4 7.372 5.119 6 6.5 6zM5 4.5a1.5 1.5 0 1 1 3.001.001A1.5 1.5 0 0 1 5 4.5z" class="bccls-1"/></svg><svg preserveAspectRatio="xMidYMid" width="20" height="18" viewBox="-1 -1 20 18" id="nav-dating" x="161.06" y="98.16"><path fill="#bac0c3" d="M12.691.009A5.33 5.33 0 0 0 9 1.477 5.329 5.329 0 0 0 5.309.009C2.381.009 0 2.346 0 5.221c0 .792.182 1.559.531 2.26 1.831 4.112 7.898 8.15 8.155 8.321l.314.207.314-.207c.257-.171 6.324-4.209 8.146-8.3.358-.722.54-1.489.54-2.281C18 2.346 15.619.009 12.691.009zm-3.36 14.426L9 14.67c-1.262-.883-5.966-4.325-7.449-7.653a3.997 3.997 0 0 1-.426-1.796c0-2.265 1.877-4.108 4.184-4.108 1.268 0 2.454.557 3.254 1.529L9 3.174C11.01.598 16.255.071 17.1 5.333c.099 3.52-6.567 7.994-7.769 9.102z" class="bdcls-1"/></svg><svg preserveAspectRatio="xMidYMid" width="20" height="18" viewBox="-1 -1 20 18" id="nav-dating-cur" x="161.06" y="116.16"><path fill="#4bbfeb" d="M12.691.009A5.33 5.33 0 0 0 9 1.477 5.329 5.329 0 0 0 5.309.009C2.381.009 0 2.346 0 5.221c0 .792.182 1.559.531 2.26 1.831 4.112 7.898 8.15 8.155 8.321l.314.207.314-.207c.257-.171 6.324-4.209 8.146-8.3.358-.722.54-1.489.54-2.281C18 2.346 15.619.009 12.691.009zm-3.36 14.426L9 14.67c-1.262-.883-5.966-4.325-7.449-7.653a3.997 3.997 0 0 1-.426-1.796c0-2.265 1.877-4.108 4.184-4.108 1.268 0 2.454.557 3.254 1.529L9 3.174C11.01.598 16.255.071 17.1 5.333c.099 3.52-6.567 7.994-7.769 9.102z" class="becls-1"/></svg><svg preserveAspectRatio="xMidYMid" width="9" height="9" viewBox="-1 -1 9 9" id="nav-delete" x="143.06" y="144.81"><path fill="#e2e2e2" d="M6 4v1h1v2H5V6H4V5H3v1H2v1H0V5h1V4h1V3H1V2H0V0h2v1h1v1h1V1h1V0h2v2H6v1H5v1h1z" class="bfcls-1"/></svg><svg preserveAspectRatio="xMidYMid" width="21.16" height="19.66" viewBox="-1 -1 21.16 19.66" id="nav-homes" x="129.06" y="92.91"><path d="M19.157 9.469l-.688.688-8.803-8.804-8.96 8.96-.707-.707L9.606-.001l.197.197.04-.041 9.314 9.314z" fill="#bac0c3"/><path d="M16.156 17.156h-14v-10h1v9h13v-9h1v10h-1z" fill="#bac0c3"/><path stroke="#bac0c3" fill="none" d="M7.156 10.156h5v7h-5z"/><path fill="#bac0c3" stroke-linejoin="round" fill-opacity="0" d="M8.156 7.156h3v1h-3z"/></svg><svg preserveAspectRatio="xMidYMid" width="21.16" height="19.66" viewBox="-1 -1 21.16 19.66" id="nav-homes-cur" x="161.06"><path d="M19.157 9.469l-.688.688-8.803-8.804-8.96 8.96-.707-.707L9.606-.001l.197.197.04-.041 9.314 9.314z" fill="#4bbfeb"/><path d="M16.156 17.156h-14v-10h1v9h13v-9h1v10h-1z" fill="#4bbfeb"/><path stroke="#4bbfeb" fill="none" d="M7.156 10.156h5v7h-5z"/><path fill="#4bbfeb" stroke-linejoin="round" fill-opacity="0" d="M8.156 7.156h3v1h-3z"/></svg><svg preserveAspectRatio="xMidYMid" width="18" height="15.5" viewBox="-1 -1 18 15.5" id="nav-jobs" x="18" y="159.81"><path d="M13 6v1H2V6h11z" fill="#bac0c3"/><rect x=".5" y="2" width="15" height="11" rx="2" ry="2" stroke-linejoin="round" stroke="#bac0c3" fill-opacity="0"/><path fill="#bac0c3" d="M9.5 0h1v3h-1zM9 0v1H6V0h3z"/></svg><svg preserveAspectRatio="xMidYMid" width="18" height="15.5" viewBox="-1 -1 18 15.5" id="nav-jobs-cur" x="36" y="159.81"><path d="M13 6v1H2V6h11z" fill="#4bbfeb"/><rect x=".5" y="2" width="15" height="11" rx="2" ry="2" stroke-linejoin="round" stroke="#4bbfeb" fill-opacity="0"/><path fill="#4bbfeb" d="M9.5 0h1v3h-1zM9 0v1H6V0h3z"/></svg><svg preserveAspectRatio="xMidYMid" width="14" height="17" viewBox="-1 -1 14 17" id="nav-news" x="182.22" y="17"><path fill="#bac0c3" d="M11.999 15.006L5.438 15l-5.442.006V.016S9.041.031 9 0h1v1h-.977C9.02 1.873 9 3 9 3s1.127-.014 2-.016V2h1v1c-.039-.012-.001 12.006-.001 12.006zM8 4s.045-2.984 0-3H1v13h10s.09-10.033 0-10c.033-.003-2.907-.07-3 0zm-5 6h6v1H3v-1zm-.004-2.987h6.002L9 8H3l-.004-.987zM10 1h1v1h-1V1z" class="bkcls-1"/></svg><svg preserveAspectRatio="xMidYMid" width="14" height="17" viewBox="-1 -1 14 17" id="nav-news-cur" x="182.22"><path fill="#4bbfeb" d="M11.999 15.006L5.438 15l-5.442.006V.016S9.041.031 9 0h1v1h-.977C9.02 1.873 9 3 9 3s1.127-.014 2-.016V2h1v1c-.039-.012-.001 12.006-.001 12.006zM8 4s.045-2.984 0-3H1v13h10s.09-10.033 0-10c.033-.003-2.907-.07-3 0zm-5 6h6v1H3v-1zm-.004-2.987h6.002L9 8H3l-.004-.987zM10 1h1v1h-1V1z" class="blcls-1"/></svg><svg preserveAspectRatio="xMidYMid" width="17" height="14" viewBox="-1 -1 17 14" id="nav-partners" x="19" y="144.81"><path fill="#bec3c6" d="M0 12V1h5V0h5v1h5v11H0zm14-7h-1V4h1V2H1v2h1v1H1v6h13V5zm-2 1V5h1v1h-1zM3 6H2V5h1v1zm3-1h3v1h3v1H9v1H6V7H3V6h3V5z" class="bmcls-1"/></svg><svg preserveAspectRatio="xMidYMid" width="17" height="14" viewBox="-1 -1 17 14" id="nav-partners-cur" x="36" y="144.81"><path fill="#4bbfeb" d="M0 12V1h5V0h5v1h5v11H0zm14-7h-1V4h1V2H1v2h1v1H1v6h13V5zm-2 1V5h1v1h-1zM3 6H2V5h1v1zm3-1h3v1h3v1H9v1H6V7H3V6h3V5z" class="bncls-1"/></svg><svg preserveAspectRatio="xMidYMid" width="14" height="16" viewBox="-1 -1 14 16" id="nav-profile" x="182.22" y="34"><path fill="#bec3c6" d="M11.795 11.9S9.973 13.875 6.353 14C3.137 14 .205 11.9.205 11.9A.204.204 0 0 1 0 11.697V9.085c0-.531.644-1.061 1.968-1.623.924-.394 1.83-.651 1.869-.662a.203.203 0 0 1 .113.39C2.479 7.607.411 8.47.411 9.085v2.408S2.113 13.3 6.353 13.3c3.818 0 5.238-1.807 5.238-1.807V9.085c0-.615-2.07-1.479-3.54-1.895a.203.203 0 1 1 .113-.39c.038.011.945.268 1.868.662C11.356 8.024 12 8.554 12 9.085v2.612a.204.204 0 0 1-.205.203zM6.001 7.721c-1.226 0-2.839-2.757-2.839-4.383 0-.951.188-1.714.561-2.267C4.2.36 4.967 0 6.001 0s1.8.36 2.276 1.071c.373.553.563 1.316.563 2.267 0 1.626-1.614 4.383-2.839 4.383zm2.428-4.383c0-.87-.165-1.557-.492-2.042-.396-.59-1.048-.89-1.936-.89-.889 0-1.541.3-1.938.89-.326.485-.492 1.172-.492 2.042 0 .7.341 1.684.891 2.57.53.854 1.133 1.406 1.539 1.406.404 0 1.008-.552 1.537-1.406.55-.886.891-1.87.891-2.57z" class="bocls-1"/><path fill="#bec3c6" d="M11.795 11.9S9.973 13.875 6.353 14C3.137 14 .205 11.9.205 11.9A.204.204 0 0 1 0 11.697V9.085c0-.531.644-1.061 1.968-1.623.924-.394 1.83-.651 1.869-.662a.203.203 0 0 1 .113.39C2.479 7.607.411 8.47.411 9.085v2.408S2.113 13.3 6.353 13.3c3.818 0 5.238-1.807 5.238-1.807V9.085c0-.615-2.07-1.479-3.54-1.895a.203.203 0 1 1 .113-.39c.038.011.945.268 1.868.662C11.356 8.024 12 8.554 12 9.085v2.612a.204.204 0 0 1-.205.203zM6.001 7.721c-1.226 0-2.839-2.757-2.839-4.383 0-.951.188-1.714.561-2.267C4.2.36 4.967 0 6.001 0s1.8.36 2.276 1.071c.373.553.563 1.316.563 2.267 0 1.626-1.614 4.383-2.839 4.383zm2.428-4.383c0-.87-.165-1.557-.492-2.042-.396-.59-1.048-.89-1.936-.89-.889 0-1.541.3-1.938.89-.326.485-.492 1.172-.492 2.042 0 .7.341 1.684.891 2.57.53.854 1.133 1.406 1.539 1.406.404 0 1.008-.552 1.537-1.406.55-.886.891-1.87.891-2.57z" class="bocls-1"/></svg><svg preserveAspectRatio="xMidYMid" width="14" height="16" viewBox="-1 -1 14 16" id="nav-profile-cur" x="182.22" y="50"><path fill="#4bbfeb" d="M11.795 11.9S9.973 13.875 6.353 14C3.137 14 .205 11.9.205 11.9A.204.204 0 0 1 0 11.697V9.085c0-.531.644-1.061 1.968-1.623.924-.394 1.83-.651 1.869-.662a.203.203 0 0 1 .113.39C2.479 7.607.411 8.47.411 9.085v2.408S2.113 13.3 6.353 13.3c3.818 0 5.238-1.807 5.238-1.807V9.085c0-.615-2.07-1.479-3.54-1.895a.203.203 0 1 1 .113-.39c.038.011.945.268 1.868.662C11.356 8.024 12 8.554 12 9.085v2.612a.204.204 0 0 1-.205.203zM6.001 7.721c-1.226 0-2.839-2.757-2.839-4.383 0-.951.188-1.714.561-2.267C4.2.36 4.967 0 6.001 0s1.8.36 2.276 1.071c.373.553.563 1.316.563 2.267 0 1.626-1.614 4.383-2.839 4.383zm2.428-4.383c0-.87-.165-1.557-.492-2.042-.396-.59-1.048-.89-1.936-.89-.889 0-1.541.3-1.938.89-.326.485-.492 1.172-.492 2.042 0 .7.341 1.684.891 2.57.53.854 1.133 1.406 1.539 1.406.404 0 1.008-.552 1.537-1.406.55-.886.891-1.87.891-2.57z" class="bpcls-1"/><path fill="#4bbfeb" d="M11.795 11.9S9.973 13.875 6.353 14C3.137 14 .205 11.9.205 11.9A.204.204 0 0 1 0 11.697V9.085c0-.531.644-1.061 1.968-1.623.924-.394 1.83-.651 1.869-.662a.203.203 0 0 1 .113.39C2.479 7.607.411 8.47.411 9.085v2.408S2.113 13.3 6.353 13.3c3.818 0 5.238-1.807 5.238-1.807V9.085c0-.615-2.07-1.479-3.54-1.895a.203.203 0 1 1 .113-.39c.038.011.945.268 1.868.662C11.356 8.024 12 8.554 12 9.085v2.612a.204.204 0 0 1-.205.203zM6.001 7.721c-1.226 0-2.839-2.757-2.839-4.383 0-.951.188-1.714.561-2.267C4.2.36 4.967 0 6.001 0s1.8.36 2.276 1.071c.373.553.563 1.316.563 2.267 0 1.626-1.614 4.383-2.839 4.383zm2.428-4.383c0-.87-.165-1.557-.492-2.042-.396-.59-1.048-.89-1.936-.89-.889 0-1.541.3-1.938.89-.326.485-.492 1.172-.492 2.042 0 .7.341 1.684.891 2.57.53.854 1.133 1.406 1.539 1.406.404 0 1.008-.552 1.537-1.406.55-.886.891-1.87.891-2.57z" class="bpcls-1"/></svg><svg preserveAspectRatio="xMidYMid" width="21" height="19" viewBox="-1 -1 21 19" id="nav-shopping" x="161.06" y="19.66"><path fill="#bac0c3" d="M18.406 0H15c-.026.094.063.735 0 1l-1 3H0v1c.003.011-.003-.011 0 0l2 6c.018-.103.744 0 1 0h9v2H4c-.328 0-1.037.159-1.037.483a.59.59 0 0 0 .594.586h.468c-.284.311-.462.72-.462 1.172A1.77 1.77 0 0 0 5.344 17a1.77 1.77 0 0 0 1.781-1.759c0-.452-.177-.861-.462-1.172h4.5a1.73 1.73 0 0 0-.463 1.172A1.77 1.77 0 0 0 12.481 17a1.77 1.77 0 0 0 1.782-1.759 1.75 1.75 0 0 0-.771-1.447c.034-.054-.508-.73-.492-.794l3-12h2c.328 0 1-.091 1-.414A.59.59 0 0 0 18.406 0zM5.344 15.828a.592.592 0 0 1-.594-.587c0-.322.267-.586.594-.586a.59.59 0 0 1 .593.586.591.591 0 0 1-.593.587zm7.137 0a.591.591 0 0 1-.593-.587.59.59 0 0 1 .593-.586c.328 0 .594.264.594.586a.591.591 0 0 1-.594.587zM13 10H3L1 5h13l-1 5z" class="bqcls-1"/></svg><svg preserveAspectRatio="xMidYMid" width="21" height="19" viewBox="-1 -1 21 19" id="nav-shopping-cur" x="161.06" y="38.66"><path fill="#4bbfeb" d="M18.406 0H15c-.026.094.063.735 0 1l-1 3H0v1c.003.011-.003-.011 0 0l2 6c.018-.103.744 0 1 0h9v2H4c-.328 0-1.037.159-1.037.483a.59.59 0 0 0 .594.586h.468c-.284.311-.462.72-.462 1.172A1.77 1.77 0 0 0 5.344 17a1.77 1.77 0 0 0 1.781-1.759c0-.452-.177-.861-.462-1.172h4.5a1.73 1.73 0 0 0-.463 1.172A1.77 1.77 0 0 0 12.481 17a1.77 1.77 0 0 0 1.782-1.759 1.75 1.75 0 0 0-.771-1.447c.034-.054-.508-.73-.492-.794l3-12h2c.328 0 1-.091 1-.414A.59.59 0 0 0 18.406 0zM5.344 15.828a.592.592 0 0 1-.594-.587c0-.322.267-.586.594-.586a.59.59 0 0 1 .593.586.591.591 0 0 1-.593.587zm7.137 0a.591.591 0 0 1-.593-.587.59.59 0 0 1 .593-.586c.328 0 .594.264.594.586a.591.591 0 0 1-.594.587zM13 10H3L1 5h13l-1 5z" class="brcls-1"/></svg><svg preserveAspectRatio="xMidYMid" width="17" height="15" viewBox="-1 -1 17 15" id="nav-travel" x="54" y="159.81"><path fill="#bac0c3" d="M14.834.111a.487.487 0 0 0-.481-.07L.287 5.639a.446.446 0 0 0-.289.422.45.45 0 0 0 .308.41l5.322 1.86v4.229c0 .198.136.372.335.429a.476.476 0 0 0 .526-.184L8.492 9.88l3.259 1.803a.483.483 0 0 0 .423.023.452.452 0 0 0 .269-.312L14.991.552a.438.438 0 0 0-.157-.441zm-2.271 1.611L6.046 7.526 1.751 6.024l10.812-4.302zm-.895 8.882l-4.753-2.63 6.791-6.048-2.038 8.678z" class="bscls-1"/></svg><svg preserveAspectRatio="xMidYMid" width="17" height="15" viewBox="-1 -1 17 15" id="nav-travel-cur" x="71" y="159.81"><path fill="#4bbeeb" d="M14.834.111a.487.487 0 0 0-.481-.07L.287 5.639a.446.446 0 0 0-.289.422.45.45 0 0 0 .308.41l5.322 1.86v4.229c0 .198.136.372.335.429a.476.476 0 0 0 .526-.184L8.492 9.88l3.259 1.803a.483.483 0 0 0 .423.023.452.452 0 0 0 .269-.312L14.991.552a.438.438 0 0 0-.157-.441zm-2.271 1.611L6.046 7.526 1.751 6.024l10.812-4.302zm-.895 8.882l-4.753-2.63 6.791-6.048-2.038 8.678z" class="btcls-1"/></svg><svg preserveAspectRatio="xMidYMid" width="97.03" height="113.84" viewBox="-1 -1 97.03 113.84" id="play"><path fill="#f9fafb" d="M7.303 1.892l85.942 51.076c2.359 1.608 2.359 4.216 0 5.825L7.303 109.868c-2.358 1.609-4.845 2.841-7.204 1.232V58.469c.26-2.579-.322-2.713 0-5.049V.789C2.458-.82 4.945.283 7.303 1.892z"/></svg><svg preserveAspectRatio="xMidYMid" width="17" height="17" viewBox="-1 -1 17 17" id="popup_close" x="17" y="178.81"><path fill="#5e5e5e" d="M10 8v1h1v1h1v1h1v1h1v1h1v2h-2v-1h-1v-1h-1v-1h-1v-1H9v-1H8V9H7v1H6v1H5v1H4v1H3v1H2v1H0v-2h1v-1h1v-1h1v-1h1V9h1V8h1V7H5V6H4V5H3V4H2V3H1V2H0V0h2v1h1v1h1v1h1v1h1v1h1v1h1V5h1V4h1V3h1V2h1V1h1V0h2v2h-1v1h-1v1h-1v1h-1v1h-1v1H9v1h1z"/></svg><svg preserveAspectRatio="xMidYMid" width="14" height="14" viewBox="-1 -1 14 14" id="radio-checked" x="182.22" y="112"><circle fill="#47bdeb" cx="6" cy="6" r="6"/></svg><svg preserveAspectRatio="xMidYMid" width="15" height="15" viewBox="-1 -1 15 15" id="radio-default" x="88" y="159.81"><circle cx="6.5" cy="6.5" r="6" fill="#666" stroke="#c5cace" stroke-linejoin="round" fill-opacity="0"/></svg><svg preserveAspectRatio="xMidYMid" width="18" height="5" viewBox="-1 -1 18 5" id="scale-minus" x="161.06" y="134.16"><path fill="#666" opacity=".3" d="M0 0h16v3H0z"/></svg><svg preserveAspectRatio="xMidYMid" width="17" height="17" viewBox="-1 -1 17 17" id="scale-plus" y="178.81"><g fill="#c8c9ca"><path d="M0 6h15v3H0z"/><path d="M6 15V0h3v15H6z"/></g></svg><svg preserveAspectRatio="xMidYMid" width="11" height="7" viewBox="-1 -1 11 7" id="selector-arrow" x="93" y="135.84"><path fill="#666" d="M8 1V0h1v1H8zM7 2V1h1v1H7zM6 3V2h1v1H6zM5 4V3h1v1H5zM4 5V4h1v1H4zM3 3h1v1H3V3zM2 2h1v1H2V2zM1 1h1v1H1V1zM0 0h1v1H0V0z" class="cacls-1"/></svg><svg preserveAspectRatio="xMidYMid" width="10" height="10" viewBox="-1 -1 10 10" id="tabs_add" x="114" y="144.81"><path fill="#fff" d="M8 5H5v3H3V5H0V3h3V0h2v3h3v2z"/></svg><svg preserveAspectRatio="xMidYMid" width="16" height="16" viewBox="-1 -1 16 16" id="tabs_edit" x="34" y="178.81"><path fill="#bcc2c5" d="M12.379 6.531c.03.445.01.896-.072 1.345l.011-.02s1.693 1.1 1.251 2.022l-.152.317c-.331.691-2.003.363-2.368.282a5.405 5.405 0 0 1-1.029.904l.046-.015s.441 2.092-.521 2.43l-.474.166c-.735.259-1.604-1.348-1.759-1.649a5.36 5.36 0 0 1-1.43-.102l.118.061s-1.053 1.611-1.972 1.167l-.315-.152c-.737-.356-.353-2.16-.314-2.334a5.428 5.428 0 0 1-.953-1.121l.057.18s-1.959.483-2.296-.483L.035 9.15c-.27-.773 1.39-1.815 1.555-1.916a5.409 5.409 0 0 1 .063-1.287C1.508 5.826.23 4.726.581 3.993l.152-.317c.4-.834 1.889-.441 2.171-.358.289-.33.615-.616.966-.862C3.853 2.309 3.654.4 4.433.127l.426-.11c.883-.31 1.633 1.206 1.752 1.462a5.345 5.345 0 0 1 1.31.064C8.125 1.3 9.174.11 9.87.447l.315.152c.797.385.452 1.815.345 2.189.341.297.635.635.887.998.316-.045 2.16-.271 2.42.473l.141.443c.299.857-1.243 1.658-1.599 1.829zM8.156 4.882a2.383 2.383 0 0 0-3.185 1.119C4.4 7.193 4.885 8.654 6.072 9.228c1.187.574 2.672.064 3.244-1.128.571-1.191.027-2.644-1.16-3.218z" class="cccls-1"/></svg><svg preserveAspectRatio="xMidYMid" width="16" height="16" viewBox="-1 -1 16 16" id="tabs_edit_act" x="82" y="178.81"><path fill="#14aeed" d="M12.379 6.531c.03.445.01.896-.072 1.345l.011-.02s1.693 1.1 1.251 2.022l-.152.317c-.331.691-2.003.363-2.368.282a5.405 5.405 0 0 1-1.029.904l.046-.015s.441 2.092-.521 2.43l-.474.166c-.735.259-1.604-1.348-1.759-1.649a5.36 5.36 0 0 1-1.43-.102l.118.061s-1.053 1.611-1.972 1.167l-.315-.152c-.737-.356-.353-2.16-.314-2.334a5.428 5.428 0 0 1-.953-1.121l.057.18s-1.959.483-2.296-.483L.035 9.15c-.27-.773 1.39-1.815 1.555-1.916a5.409 5.409 0 0 1 .063-1.287C1.508 5.826.23 4.726.581 3.993l.152-.317c.4-.834 1.889-.441 2.171-.358.289-.33.615-.616.966-.862C3.853 2.309 3.654.4 4.433.127l.426-.11c.883-.31 1.633 1.206 1.752 1.462a5.345 5.345 0 0 1 1.31.064C8.125 1.3 9.174.11 9.87.447l.315.152c.797.385.452 1.815.345 2.189.341.297.635.635.887.998.316-.045 2.16-.271 2.42.473l.141.443c.299.857-1.243 1.658-1.599 1.829zM8.156 4.882a2.383 2.383 0 0 0-3.185 1.119C4.4 7.193 4.885 8.654 6.072 9.228c1.187.574 2.672.064 3.244-1.128.571-1.191.027-2.644-1.16-3.218z" class="cdcls-1"/></svg><svg preserveAspectRatio="xMidYMid" width="16" height="16" viewBox="-1 -1 16 16" id="tabs_edit_hov" x="66" y="178.81"><path fill="#999" d="M12.379 6.531c.03.445.01.896-.072 1.345l.011-.02s1.693 1.1 1.251 2.022l-.152.317c-.331.691-2.003.363-2.368.282a5.405 5.405 0 0 1-1.029.904l.046-.015s.441 2.092-.521 2.43l-.474.166c-.735.259-1.604-1.348-1.759-1.649a5.36 5.36 0 0 1-1.43-.102l.118.061s-1.053 1.611-1.972 1.167l-.315-.152c-.737-.356-.353-2.16-.314-2.334a5.428 5.428 0 0 1-.953-1.121l.057.18s-1.959.483-2.296-.483L.035 9.15c-.27-.773 1.39-1.815 1.555-1.916a5.409 5.409 0 0 1 .063-1.287C1.508 5.826.23 4.726.581 3.993l.152-.317c.4-.834 1.889-.441 2.171-.358.289-.33.615-.616.966-.862C3.853 2.309 3.654.4 4.433.127l.426-.11c.883-.31 1.633 1.206 1.752 1.462a5.345 5.345 0 0 1 1.31.064C8.125 1.3 9.174.11 9.87.447l.315.152c.797.385.452 1.815.345 2.189.341.297.635.635.887.998.316-.045 2.16-.271 2.42.473l.141.443c.299.857-1.243 1.658-1.599 1.829zM8.156 4.882a2.383 2.383 0 0 0-3.185 1.119C4.4 7.193 4.885 8.654 6.072 9.228c1.187.574 2.672.064 3.244-1.128.571-1.191.027-2.644-1.16-3.218z"/></svg><svg preserveAspectRatio="xMidYMid" width="10" height="10" viewBox="-1 -1 10 10" id="tabs_remove" x="94" y="144.81"><path fill="none" stroke="#999" d="M5.5 5.5h-1v-1h1v1zm1 1h-1v-1h1v1zm1 1h-1v-1h1v1zm-4-3v-1h1v1h-1zm-1 1v-1h1v1h-1zm-1 1v-1h1v1h-1zm-1 1v-1h1v1h-1zm2-5h1v1h-1v-1zm-1-1h1v1h-1v-1zm-1-1h1v1h-1v-1zm5 2v1h-1v-1h1zm1-1v1h-1v-1h1zm1-1v1h-1v-1h1z"/></svg><svg preserveAspectRatio="xMidYMid" width="10" height="10" viewBox="-1 -1 10 10" id="tabs_remove_hov" x="104" y="144.81"><path fill="none" stroke="#47bdeb" d="M5.5 5.5h-1v-1h1v1zm1 1h-1v-1h1v1zm1 1h-1v-1h1v1zm-4-3v-1h1v1h-1zm-1 1v-1h1v1h-1zm-1 1v-1h1v1h-1zm-1 1v-1h1v1h-1zm2-5h1v1h-1v-1zm-1-1h1v1h-1v-1zm-1-1h1v1h-1v-1zm5 2v1h-1v-1h1zm1-1v1h-1v-1h1zm1-1v1h-1v-1h1z"/></svg><svg preserveAspectRatio="xMidYMid" width="19.47" height="20.25" viewBox="-1 -1 19.47 20.25" id="tabs_search" x="161.06" y="57.66"><defs><style>.chcls-1{fill:#c7c7c7;fill-rule:evenodd}</style></defs><path d="M17.231 16.906l-1.113 1.113a.788.788 0 0 1-1.113 0L9.731 12.74c-.815.388-2.122.606-3.157.606-3.716 0-6.581-3.013-6.581-6.729 0-3.715 2.865-6.63 6.581-6.63s6.729 2.915 6.729 6.63c0 1.541-.482 3.221-1.292 4.277l5.22 4.899a.788.788 0 0 1 0 1.113zM6.66 2.71a3.984 3.984 0 1 0 .001 7.967A3.984 3.984 0 0 0 6.66 2.71z" class="chcls-1"/></svg><svg preserveAspectRatio="xMidYMid" width="19.47" height="20.25" viewBox="-1 -1 19.47 20.25" id="tabs_search_act" x="161.06" y="77.91"><defs><style>.cicls-1{fill:#c7c7c7;fill-rule:evenodd}</style></defs><path d="M17.231 16.906l-1.113 1.113a.788.788 0 0 1-1.113 0L9.731 12.74c-.815.388-2.122.606-3.157.606-3.716 0-6.581-3.013-6.581-6.729 0-3.715 2.865-6.63 6.581-6.63s6.729 2.915 6.729 6.63c0 1.541-.482 3.221-1.292 4.277l5.22 4.899a.788.788 0 0 1 0 1.113zM6.66 2.71a3.984 3.984 0 1 0 .001 7.967A3.984 3.984 0 0 0 6.66 2.71z" class="cicls-1"/></svg><svg preserveAspectRatio="xMidYMid" width="17" height="11" viewBox="-1 -1 17 11" id="tabs_views" x="70" y="144.81"><path fill="#bcc2c5" d="M14 2v1h-1v1h-1v1h-1v1h-1v1H9v1H8v1H7V8H6V7H5V6H4V5H3V4H2V3H1V2H0V0h2v1h1v1h1v1h1v1h1v1h1v1h1V5h1V4h1V3h1V2h1V1h1V0h2v2h-1z" class="cjcls-1"/></svg><svg preserveAspectRatio="xMidYMid" width="17" height="11" viewBox="-1 -1 17 11" id="tabs_views_act" x="53" y="144.81"><path fill="#14aeed" d="M14 2v1h-1v1h-1v1h-1v1h-1v1H9v1H8v1H7V8H6V7H5V6H4V5H3V4H2V3H1V2H0V0h2v1h1v1h1v1h1v1h1v1h1v1h1V5h1V4h1V3h1V2h1V1h1V0h2v2h-1z" class="ckcls-1"/></svg></svg>