<svg xmlns="http://www.w3.org/2000/svg" xmlns:xlink="http://www.w3.org/1999/xlink" preserveAspectRatio="xMidYMid" width="5" height="9" viewBox="0 0 5 9">
  <path fill="#666" d="M4.000,5.000 L4.000,4.000 L5.000,4.000 L5.000,5.000 L4.000,5.000 ZM3.000,6.000 L3.000,5.000 L4.000,5.000 L4.000,6.000 L3.000,6.000 ZM2.000,7.000 L2.000,6.000 L3.000,6.000 L3.000,7.000 L2.000,7.000 ZM1.000,8.000 L1.000,7.000 L2.000,7.000 L2.000,8.000 L1.000,8.000 ZM-0.000,9.000 L-0.000,8.000 L1.000,8.000 L1.000,9.000 L-0.000,9.000 ZM3.000,3.000 L4.000,3.000 L4.000,4.000 L3.000,4.000 L3.000,3.000 ZM2.000,2.000 L3.000,2.000 L3.000,3.000 L2.000,3.000 L2.000,2.000 ZM1.000,1.000 L2.000,1.000 L2.000,2.000 L1.000,2.000 L1.000,1.000 ZM-0.000,-0.000 L1.000,-0.000 L1.000,1.000 L-0.000,1.000 L-0.000,-0.000 Z" class="cls-1"/>
</svg>
