<svg xmlns="http://www.w3.org/2000/svg" xmlns:xlink="http://www.w3.org/1999/xlink" preserveAspectRatio="xMidYMid" width="16" height="17" viewBox="0 0 16 17">
  <path fill="#bac0c3" d="M15.000,17.000 L1.000,17.000 L0.000,17.000 L0.000,16.000 L0.000,5.000 L0.000,4.000 L0.000,2.000 L0.000,1.000 L1.000,1.000 L3.000,1.000 L3.000,-0.000 L4.000,-0.000 L4.000,1.000 L11.000,1.000 L11.000,-0.000 L12.000,-0.000 L12.000,1.000 L15.000,1.000 L16.000,1.000 L16.000,2.000 L16.000,4.000 L16.000,5.000 L16.000,16.000 L16.000,17.000 L15.000,17.000 ZM15.000,2.000 L12.000,2.000 L11.000,2.000 L4.000,2.000 L3.000,2.000 L1.000,2.000 L1.000,4.000 L15.000,4.000 L15.000,2.000 ZM15.000,5.000 L1.000,5.000 L1.000,16.000 L15.000,16.000 L15.000,5.000 ZM6.000,9.000 L6.000,10.000 L4.000,10.000 L4.000,9.000 L4.000,8.000 L6.000,8.000 L6.000,9.000 ZM6.000,12.000 L6.000,13.000 L4.000,13.000 L4.000,12.000 L4.000,11.000 L6.000,11.000 L6.000,12.000 ZM9.000,9.000 L9.000,10.000 L7.000,10.000 L7.000,9.000 L7.000,8.000 L9.000,8.000 L9.000,9.000 ZM9.000,12.000 L9.000,13.000 L7.000,13.000 L7.000,12.000 L7.000,11.000 L9.000,11.000 L9.000,12.000 ZM12.000,9.000 L12.000,10.000 L10.000,10.000 L10.000,9.000 L10.000,8.000 L12.000,8.000 L12.000,9.000 ZM12.000,12.000 L12.000,13.000 L10.000,13.000 L10.000,12.000 L10.000,11.000 L12.000,11.000 L12.000,12.000 Z" class="cls-1"/>
</svg>
