<svg xmlns="http://www.w3.org/2000/svg" xmlns:xlink="http://www.w3.org/1999/xlink" preserveAspectRatio="xMidYMid" width="30.031" height="30" viewBox="0 0 30.031 30">
  <g>
    <path fill="#666666" d="M30.024,29.103 L29.273,30.005 L22.121,23.854 C19.773,25.926 16.719,27.191 13.373,27.191 C6.001,27.191 0.004,21.095 0.004,13.603 C0.004,6.111 6.001,0.015 13.373,0.015 C20.745,0.015 26.742,6.111 26.742,13.603 C26.742,17.268 25.301,20.592 22.972,23.039 L30.024,29.103 ZM13.373,1.197 C6.642,1.197 1.166,6.762 1.166,13.603 C1.166,20.444 6.642,26.009 13.373,26.009 C20.104,26.009 25.579,20.444 25.579,13.603 C25.579,6.762 20.104,1.197 13.373,1.197 Z"/>
    <path fill="none" stroke="#666666" stroke-width="1px" d="M21.578,10.525 C21.578,10.525 19.355,3.926 12.604,4.582"/>
  </g>
</svg>
