<svg xmlns="http://www.w3.org/2000/svg" xmlns:xlink="http://www.w3.org/1999/xlink" preserveAspectRatio="xMidYMid" width="30" height="28.969" viewBox="0 0 30 28.969">
  <path fill="#14aeed" d="M29.167,15.336 L15.004,1.639 L0.841,15.336 L-0.007,14.516 L4.001,10.993 L4.001,3.998 L9.002,3.998 L9.010,5.796 L15.004,0.000 L30.015,14.516 L29.167,15.336 ZM8.002,4.997 L5.001,4.997 L5.001,9.994 L8.184,6.544 L8.002,4.997 ZM26.007,14.991 L26.007,28.982 L18.005,28.982 L18.005,20.987 L13.003,20.987 L13.003,28.982 L4.001,28.982 L4.001,14.991 L15.004,4.637 L26.007,14.991 ZM5.001,27.983 L12.003,27.983 L12.003,20.987 L13.003,19.988 L17.005,19.988 L19.005,19.988 L19.005,20.987 L19.005,27.983 L25.007,27.983 L25.007,14.991 L15.004,6.276 L5.001,14.990 L5.001,27.983 Z" class="cls-1"/>
</svg>
