<svg xmlns="http://www.w3.org/2000/svg" xmlns:xlink="http://www.w3.org/1999/xlink" preserveAspectRatio="xMidYMid" width="29" height="28.969" viewBox="0 0 29 28.969">
  <path fill="#666666" d="M25.512,28.982 C21.436,28.982 5.340,28.982 3.742,28.982 C2.143,28.982 -0.014,28.025 -0.014,25.709 C-0.014,23.394 -0.014,15.990 -0.014,15.990 L6.987,15.990 L6.947,0.000 L28.993,0.000 C28.993,0.000 28.993,24.227 28.993,25.504 C28.993,27.273 27.271,28.982 25.512,28.982 ZM0.986,16.989 L0.986,25.984 C0.986,27.718 3.019,27.823 3.742,27.823 L4.332,27.823 C5.932,27.823 6.947,25.985 6.947,25.209 L6.987,16.989 L0.986,16.989 ZM27.993,0.999 L7.988,0.999 L7.988,15.990 L8.108,16.559 L7.988,16.989 L7.988,24.984 C7.988,25.716 7.769,27.169 6.987,27.983 L25.992,27.983 C27.120,27.983 27.993,27.110 27.993,25.984 L27.993,0.999 ZM10.988,22.986 L24.992,22.986 L24.992,23.985 L10.988,23.985 L10.988,22.986 ZM10.988,18.988 L24.992,18.988 L24.992,19.988 L10.988,19.988 L10.988,18.988 ZM10.988,7.995 L24.992,7.995 L24.992,15.990 L10.988,15.990 L10.988,7.995 ZM11.989,14.991 L23.992,14.991 L23.992,8.994 L11.989,8.994 L11.989,14.991 ZM10.988,3.998 L24.992,3.998 L24.992,4.997 L10.988,4.997 L10.988,3.998 Z"/>
</svg>
