<svg xmlns="http://www.w3.org/2000/svg" xmlns:xlink="http://www.w3.org/1999/xlink" preserveAspectRatio="xMidYMid" width="20" height="20" viewBox="0 0 20 20">
  <path fill="#009ee1" d="M20.006,19.393 L19.506,19.995 L14.739,15.892 C13.174,17.274 11.138,18.118 8.908,18.118 C3.995,18.118 -0.002,14.052 -0.002,9.054 C-0.002,4.056 3.995,-0.011 8.908,-0.011 C13.821,-0.011 17.819,4.056 17.819,9.054 C17.819,11.498 16.858,13.716 15.306,15.348 L20.006,19.393 ZM8.908,0.777 C4.422,0.777 0.772,4.490 0.772,9.054 C0.772,13.617 4.422,17.330 8.908,17.330 C13.394,17.330 17.044,13.617 17.044,9.054 C17.044,4.490 13.394,0.777 8.908,0.777 Z"/>
</svg>
