<svg xmlns="http://www.w3.org/2000/svg" xmlns:xlink="http://www.w3.org/1999/xlink" preserveAspectRatio="xMidYMid" width="17" height="13" viewBox="0 0 17 13">
  <path fill="#4bbfeb" d="M17.000,8.000 L16.000,11.000 L15.000,11.000 L14.741,11.448 C14.741,12.303 14.036,12.996 13.167,12.996 C12.297,12.996 11.593,12.303 11.593,11.448 L11.000,11.000 L5.000,11.000 L3.000,11.000 L2.889,11.448 C2.889,11.960 3.313,12.377 3.833,12.377 C4.354,12.377 4.778,11.960 4.778,11.448 L5.000,11.000 L5.407,11.448 C5.407,12.303 4.703,12.996 3.833,12.996 C2.964,12.996 2.259,12.303 2.259,11.448 L2.000,11.000 L1.000,11.000 L0.000,8.000 C0.000,6.061 1.028,4.076 2.000,4.000 L0.000,4.000 L0.000,3.000 L2.204,3.710 L3.775,1.257 C4.022,0.450 4.538,0.004 5.407,0.004 L11.593,0.004 C12.462,0.004 13.065,0.422 13.299,1.234 L15.000,4.000 C15.957,4.091 16.936,6.071 17.000,8.000 ZM12.222,11.448 C12.222,11.960 12.646,12.377 13.167,12.377 C13.688,12.377 14.111,11.960 14.111,11.448 L14.000,11.000 L12.000,11.000 L12.222,11.448 ZM12.688,1.385 C12.532,0.865 12.591,1.000 12.000,1.000 L5.000,1.000 C4.451,1.000 4.561,0.854 4.384,1.416 L3.000,4.000 L14.000,4.000 L12.688,1.385 ZM14.796,4.972 L2.000,5.000 C1.627,5.000 1.000,6.129 1.000,8.000 L0.944,9.900 L1.259,9.900 L4.000,10.000 L13.000,10.000 L16.000,10.000 L16.056,9.900 L16.000,8.000 C16.064,6.868 15.491,4.972 14.796,4.972 ZM13.537,8.662 C12.842,8.662 12.278,8.108 12.278,7.424 C12.278,6.741 12.842,6.186 13.537,6.186 C14.233,6.186 14.796,6.741 14.796,7.424 C14.796,8.108 14.233,8.662 13.537,8.662 ZM13.537,6.805 C13.190,6.805 12.907,7.083 12.907,7.424 C12.907,7.766 13.190,8.043 13.537,8.043 C13.884,8.043 14.167,7.766 14.167,7.424 C14.167,7.083 13.884,6.805 13.537,6.805 ZM3.463,8.662 C2.768,8.662 2.204,8.108 2.204,7.424 C2.204,6.741 2.768,6.186 3.463,6.186 C4.159,6.186 4.722,6.741 4.722,7.424 C4.722,8.108 4.159,8.662 3.463,8.662 ZM3.463,6.805 C3.116,6.805 2.833,7.083 2.833,7.424 C2.833,7.766 3.116,8.043 3.463,8.043 C3.810,8.043 4.093,7.766 4.093,7.424 C4.093,7.083 3.810,6.805 3.463,6.805 ZM17.000,3.000 L17.000,4.000 L15.000,4.000 L17.000,3.000 Z" class="cls-1"/>
</svg>
