<svg xmlns="http://www.w3.org/2000/svg" xmlns:xlink="http://www.w3.org/1999/xlink" preserveAspectRatio="xMidYMid" width="19" height="17" viewBox="0 0 19 17">
  <path fill="#bac0c3" d="M18.406,-0.000 L15.000,0.000 C14.974,0.094 15.063,0.735 15.000,1.000 L14.000,4.000 L0.000,4.000 L0.000,4.000 L0.000,4.000 L0.000,5.000 C0.003,5.011 -0.003,4.989 0.000,5.000 L0.000,5.000 L0.000,5.000 L2.000,11.000 C2.018,10.897 2.744,11.000 3.000,11.000 L12.000,11.000 L12.000,13.000 L4.000,13.000 C3.672,13.000 2.963,13.159 2.963,13.483 C2.963,13.807 3.228,14.069 3.557,14.069 L4.025,14.069 C3.741,14.380 3.563,14.789 3.563,15.241 C3.563,16.213 4.360,17.000 5.344,17.000 C6.328,17.000 7.125,16.213 7.125,15.241 C7.125,14.789 6.948,14.380 6.663,14.069 L11.163,14.069 C10.878,14.380 10.700,14.789 10.700,15.241 C10.700,16.213 11.498,17.000 12.481,17.000 C13.465,17.000 14.263,16.213 14.263,15.241 C14.263,14.640 13.957,14.111 13.492,13.794 C13.526,13.740 12.984,13.064 13.000,13.000 L13.000,13.000 L16.000,1.000 L18.000,1.000 C18.328,1.000 19.000,0.909 19.000,0.586 C19.000,0.262 18.734,-0.000 18.406,-0.000 ZM5.344,15.828 C5.017,15.828 4.750,15.564 4.750,15.241 C4.750,14.919 5.017,14.655 5.344,14.655 C5.671,14.655 5.937,14.919 5.937,15.241 C5.937,15.564 5.671,15.828 5.344,15.828 ZM12.481,15.828 C12.154,15.828 11.888,15.564 11.888,15.241 C11.888,14.919 12.154,14.655 12.481,14.655 C12.809,14.655 13.075,14.919 13.075,15.241 C13.075,15.564 12.809,15.828 12.481,15.828 ZM13.000,10.000 L3.000,10.000 L1.000,5.000 L14.000,5.000 L13.000,10.000 Z" class="cls-1"/>
</svg>
