<svg xmlns="http://www.w3.org/2000/svg" xmlns:xlink="http://www.w3.org/1999/xlink" preserveAspectRatio="xMidYMid" width="15" height="12" viewBox="0 0 15 12">
  <path fill="#bec3c6" d="M0.000,12.000 L0.000,11.000 L0.000,2.000 L0.000,1.000 L1.000,1.000 L5.000,1.000 L5.000,-0.000 L10.000,-0.000 L10.000,1.000 L14.000,1.000 L15.000,1.000 L15.000,2.000 L15.000,11.000 L15.000,12.000 L0.000,12.000 ZM14.000,5.000 L13.000,5.000 L13.000,4.000 L14.000,4.000 L14.000,2.000 L1.000,2.000 L1.000,4.000 L2.000,4.000 L2.000,5.000 L1.000,5.000 L1.000,11.000 L14.000,11.000 L14.000,5.000 ZM12.000,6.000 L12.000,5.000 L13.000,5.000 L13.000,6.000 L12.000,6.000 ZM3.000,6.000 L2.000,6.000 L2.000,5.000 L3.000,5.000 L3.000,6.000 ZM6.000,5.000 L9.000,5.000 L9.000,6.000 L12.000,6.000 L12.000,7.000 L9.000,7.000 L9.000,8.000 L6.000,8.000 L6.000,7.000 L3.000,7.000 L3.000,6.000 L6.000,6.000 L6.000,5.000 Z" class="cls-1"/>
</svg>
