<svg xmlns="http://www.w3.org/2000/svg" xmlns:xlink="http://www.w3.org/1999/xlink" preserveAspectRatio="xMidYMid" width="12" height="14" viewBox="0 0 12 14">
  <path fill="#4bbfeb" d="M11.000,14.000 L2.000,14.000 L1.000,14.000 L1.000,13.000 L1.000,11.000 L0.000,11.000 L0.000,10.000 L1.000,10.000 L1.000,7.000 L0.000,7.000 L0.000,6.000 L1.000,6.000 L1.000,3.000 L0.000,3.000 L0.000,2.000 L1.000,2.000 L1.000,1.000 L1.000,0.000 L2.000,0.000 L11.000,0.000 L12.000,0.000 L12.000,14.000 L11.000,14.000 ZM11.000,1.000 L2.000,1.000 L2.000,2.000 L2.000,3.000 L2.000,6.000 L2.000,7.000 L2.000,10.000 L2.000,11.000 L2.000,13.000 L11.000,13.000 L11.000,1.000 ZM6.500,6.000 C7.881,6.000 9.000,7.469 9.000,7.500 C9.000,9.106 8.876,8.934 6.500,9.000 C4.220,9.032 4.000,9.202 4.000,7.500 C4.000,7.372 5.119,6.000 6.500,6.000 ZM5.000,4.500 C5.000,3.672 5.672,3.000 6.500,3.000 C7.329,3.000 8.000,3.672 8.000,4.500 C8.000,5.328 7.329,6.000 6.500,6.000 C5.672,6.000 5.000,5.328 5.000,4.500 Z" class="cls-1"/>
</svg>
