<svg xmlns="http://www.w3.org/2000/svg" xmlns:xlink="http://www.w3.org/1999/xlink" preserveAspectRatio="xMidYMid" width="18" height="16" viewBox="0 0 18 16">
  <path fill="#bac0c3" d="M12.691,0.009 C11.299,0.009 9.986,0.537 9.000,1.477 C8.015,0.537 6.701,0.009 5.309,0.009 C2.381,0.009 0.000,2.346 0.000,5.221 C0.000,6.013 0.182,6.780 0.531,7.481 C2.362,11.593 8.429,15.631 8.686,15.802 L9.000,16.009 L9.314,15.802 C9.571,15.631 15.638,11.593 17.460,7.502 C17.818,6.780 18.000,6.013 18.000,5.221 C18.000,2.346 15.619,0.009 12.691,0.009 ZM9.331,14.435 C9.204,14.525 9.092,14.605 9.000,14.670 C7.738,13.787 3.034,10.345 1.551,7.017 C1.268,6.449 1.125,5.844 1.125,5.221 C1.125,2.956 3.002,1.113 5.309,1.113 C6.577,1.113 7.763,1.670 8.563,2.642 L9.000,3.174 C11.010,0.598 16.255,0.071 17.100,5.333 C17.199,8.853 10.533,13.327 9.331,14.435 Z" class="cls-1"/>
</svg>
