<svg xmlns="http://www.w3.org/2000/svg" xmlns:xlink="http://www.w3.org/1999/xlink" preserveAspectRatio="xMidYMid" width="12" height="15" viewBox="0 0 12 15">
  <path fill="#4bbfeb" d="M11.999,15.006 L5.438,15.000 L-0.004,15.006 L-0.004,0.016 C-0.004,0.016 9.041,0.031 9.000,0.000 L10.000,0.000 L10.000,1.000 L9.023,1.000 C9.020,1.873 9.000,3.000 9.000,3.000 C9.000,3.000 10.127,2.986 11.000,2.984 L11.000,2.000 L12.000,2.000 L12.000,3.000 C11.961,2.988 11.999,15.006 11.999,15.006 ZM8.000,4.000 C8.000,4.000 8.045,1.016 8.000,1.000 C7.982,1.000 1.000,1.000 1.000,1.000 L1.000,14.000 L5.000,14.000 L6.000,14.000 L11.000,14.000 C11.000,14.000 11.090,3.967 11.000,4.000 C11.033,3.997 8.093,3.930 8.000,4.000 ZM3.000,10.000 L9.000,10.000 L9.000,11.000 L3.000,11.000 L3.000,10.000 ZM2.996,7.013 L8.998,7.013 L9.000,8.000 L3.000,8.000 L2.996,7.013 ZM10.000,1.000 L11.000,1.000 L11.000,2.000 L10.000,2.000 L10.000,1.000 Z" class="cls-1"/>
</svg>

