<svg xmlns="http://www.w3.org/2000/svg" xmlns:xlink="http://www.w3.org/1999/xlink" preserveAspectRatio="xMidYMid" width="14" height="14" viewBox="0 0 14 14">
  <path fill="#bcc2c5" d="M12.379,6.531 C12.409,6.976 12.389,7.427 12.307,7.876 L12.318,7.856 C12.318,7.856 14.011,8.956 13.569,9.878 L13.417,10.195 C13.086,10.886 11.414,10.558 11.049,10.477 C10.743,10.826 10.395,11.126 10.020,11.381 L10.066,11.366 C10.066,11.366 10.507,13.458 9.545,13.796 L9.071,13.962 C8.336,14.221 7.467,12.614 7.312,12.313 C6.839,12.343 6.359,12.310 5.882,12.211 L6.000,12.272 C6.000,12.272 4.947,13.883 4.028,13.439 L3.713,13.287 C2.976,12.931 3.360,11.127 3.399,10.953 C3.026,10.621 2.710,10.242 2.446,9.832 L2.503,10.012 C2.503,10.012 0.544,10.495 0.207,9.529 L0.035,9.150 C-0.235,8.377 1.425,7.335 1.590,7.234 C1.562,6.808 1.578,6.377 1.653,5.947 C1.508,5.826 0.230,4.726 0.581,3.993 L0.733,3.676 C1.133,2.842 2.622,3.235 2.904,3.318 C3.193,2.988 3.519,2.702 3.870,2.456 C3.853,2.309 3.654,0.400 4.433,0.127 L4.859,0.017 C5.742,-0.293 6.492,1.223 6.611,1.479 C7.044,1.448 7.484,1.466 7.921,1.543 C8.125,1.300 9.174,0.110 9.870,0.447 L10.185,0.599 C10.982,0.984 10.637,2.414 10.530,2.788 C10.871,3.085 11.165,3.423 11.417,3.786 C11.733,3.741 13.577,3.515 13.837,4.259 L13.978,4.702 C14.277,5.559 12.735,6.360 12.379,6.531 ZM8.156,4.882 C6.968,4.309 5.543,4.810 4.971,6.001 C4.400,7.193 4.885,8.654 6.072,9.228 C7.259,9.802 8.744,9.292 9.316,8.100 C9.887,6.909 9.343,5.456 8.156,4.882 Z" class="cls-1"/>
</svg>
