<svg xmlns="http://www.w3.org/2000/svg" xmlns:xlink="http://www.w3.org/1999/xlink" preserveAspectRatio="xMidYMid" width="17.47" height="18.25" viewBox="0 0 17.47 18.25">
  <defs>
    <style>
      .cls-1 {
        fill: #c7c7c7;
        fill-rule: evenodd;
      }
    </style>
  </defs>
  <path d="M17.231,16.906 L16.118,18.019 C15.811,18.326 15.313,18.326 15.005,18.019 L9.731,12.740 C8.916,13.128 7.609,13.346 6.574,13.346 C2.858,13.346 -0.007,10.333 -0.007,6.617 C-0.007,2.902 2.858,-0.013 6.574,-0.013 C10.290,-0.013 13.303,2.902 13.303,6.617 C13.303,8.158 12.821,9.838 12.011,10.894 L17.231,15.793 C17.538,16.100 17.538,16.599 17.231,16.906 ZM6.660,2.710 C4.460,2.710 2.677,4.494 2.677,6.694 C2.677,8.894 4.460,10.678 6.660,10.678 C8.861,10.678 10.644,8.894 10.644,6.694 C10.644,4.494 8.861,2.710 6.660,2.710 Z" class="cls-1"/>
</svg>
