<svg xmlns="http://www.w3.org/2000/svg" xmlns:xlink="http://www.w3.org/1999/xlink" preserveAspectRatio="xMidYMid" width="8" height="8" viewBox="0 0 8 8">
  <path fill="none" stroke="#47bdeb" stroke-width="1px" d="M5.500,5.500 L4.500,5.500 L4.500,4.500 L5.500,4.500 L5.500,5.500 ZM6.500,6.500 L5.500,6.500 L5.500,5.500 L6.500,5.500 L6.500,6.500 ZM7.500,7.500 L6.500,7.500 L6.500,6.500 L7.500,6.500 L7.500,7.500 ZM3.500,4.500 L3.500,3.500 L4.500,3.500 L4.500,4.500 L3.500,4.500 ZM2.500,5.500 L2.500,4.500 L3.500,4.500 L3.500,5.500 L2.500,5.500 ZM1.500,6.500 L1.500,5.500 L2.500,5.500 L2.500,6.500 L1.500,6.500 ZM0.500,7.500 L0.500,6.500 L1.500,6.500 L1.500,7.500 L0.500,7.500 ZM2.500,2.500 L3.500,2.500 L3.500,3.500 L2.500,3.500 L2.500,2.500 ZM1.500,1.500 L2.500,1.500 L2.500,2.500 L1.500,2.500 L1.500,1.500 ZM0.500,0.500 L1.500,0.500 L1.500,1.500 L0.500,1.500 L0.500,0.500 ZM5.500,2.500 L5.500,3.500 L4.500,3.500 L4.500,2.500 L5.500,2.500 ZM6.500,1.500 L6.500,2.500 L5.500,2.500 L5.500,1.500 L6.500,1.500 ZM7.500,0.500 L7.500,1.500 L6.500,1.500 L6.500,0.500 L7.500,0.500 Z"/>
</svg>
